<svg id="svg8" xmlns="http://www.w3.org/2000/svg" xmlns:xlink="http://www.w3.org/1999/xlink" viewBox="0 0 168.49 177.7"><defs><linearGradient id="linear-gradient" x1="-165.63" y1="167.11" x2="-219.69" y2="224.47" gradientTransform="matrix(2.83, 0, 0, -2.83, 640.06, 623.03)" gradientUnits="userSpaceOnUse"><stop offset="0" stop-color="#89beff"/><stop offset="1" stop-color="#e6f1ff"/></linearGradient><linearGradient id="linear-gradient-2" x1="-178.36" y1="160.92" x2="-225.04" y2="206.02" gradientTransform="matrix(2.83, 0, 0, -2.83, 640.06, 623.03)" gradientUnits="userSpaceOnUse"><stop offset="0" stop-color="#e6e6e6"/><stop offset="1" stop-color="#e6e6e6" stop-opacity="0"/></linearGradient><linearGradient id="linear-gradient-3" x1="-180.81" y1="191.68" x2="-223.1" y2="208.75" gradientTransform="matrix(2.83, 0, 0, -2.83, 640.06, 623.03)" gradientUnits="userSpaceOnUse"><stop offset="0" stop-color="#419bfd"/><stop offset="1" stop-color="#5da9fd"/></linearGradient><linearGradient id="linear-gradient-4" x1="-206.54" y1="190.65" x2="-216.05" y2="201.19" gradientTransform="matrix(2.83, 0, 0, -2.83, 640.06, 623.03)" gradientUnits="userSpaceOnUse"><stop offset="0" stop-color="#ccc"/><stop offset="1" stop-color="#dedede"/></linearGradient><linearGradient id="linear-gradient-5" x1="-194.07" y1="185.07" x2="-203.5" y2="195.99" gradientTransform="matrix(2.83, 0, 0, -2.83, 640.06, 623.03)" gradientUnits="userSpaceOnUse"><stop offset="0" stop-color="#ccc"/><stop offset="1" stop-color="#dedede"/></linearGradient><linearGradient id="linear-gradient-6" x1="-182.65" y1="181.3" x2="-191.72" y2="191.07" xlink:href="#linear-gradient-5"/><linearGradient id="linear-gradient-7" x1="-179.49" y1="175.37" x2="-240.02" y2="202.4" gradientTransform="matrix(2.83, 0, 0, -2.83, 640.06, 623.03)" gradientUnits="userSpaceOnUse"><stop offset="0" stop-color="#1684fc"/><stop offset="1" stop-color="#1684fc" stop-opacity="0"/></linearGradient><linearGradient id="linear-gradient-8" x1="-182.29" y1="174.15" x2="-240.77" y2="194.67" xlink:href="#linear-gradient-7"/><linearGradient id="linear-gradient-9" x1="-182.44" y1="170.13" x2="-242.85" y2="192.96" xlink:href="#linear-gradient-7"/></defs><g id="layer1"><path id="path888" d="M33.7,0,168.49,53.1v98.18L33.7,98.19Z" transform="translate(0)" style="fill:#edf5ff"/><path id="path845" d="M0,24.91,134.79,78V176.2L0,123.1Z" transform="translate(0)" style="fill:#e6e6e6"/><path id="path847" d="M0,35.82l134.79,53.1V78L0,24.91Z" transform="translate(0)" style="fill:#5da9fd"/><path id="path849" d="M22.47,44.67V132L0,123.1V35.82Z" transform="translate(0)" style="fill:#b8dafe"/><path id="path853-3" d="M28.08,52.34,56.16,63.4V85.22L28.08,74.16V52.34" transform="translate(0)" style="fill:#fff"/><path id="path855" d="M61.78,65.61,89.86,76.67V98.49L61.78,87.43V65.61" transform="translate(0)" style="fill:#fff"/><path id="path857" d="M95.48,78.89,123.56,90v21.82L95.48,100.7V78.89" transform="translate(0)" style="fill:#fff"/><path id="path859" d="M28.08,79.61l95.48,37.61v5.46L28.08,85.07Z" transform="translate(0)" style="fill:#fff"/><path id="path861" d="M28.08,91.16l95.48,37.61v5.45L28.08,96.61Z" transform="translate(0)" style="fill:#fff"/><path id="path863" d="M28.08,101.43,123.56,139v5.46L28.08,106.89Z" transform="translate(0)" style="fill:#fff"/><path id="path865" d="M28.08,112.34,123.56,150v5.46L28.08,117.8Z" transform="translate(0)" style="fill:#fff"/><path id="path886" d="M28.08,123.25l95.48,37.61v5.46L28.08,128.71Z" transform="translate(0)" style="fill:#fff"/><path id="path956" d="M0,41.28l22.47,8.84v5.46L0,46.73Z" transform="translate(0)" style="fill:#5da9fd"/><path id="path975" d="M33.7,0,168.49,53.1v98.18L33.7,98.19Z" transform="translate(0)" style="fill:url(#linear-gradient)"/><path id="path977" d="M0,26.41l134.79,53.1V177.7L0,124.6Z" transform="translate(0)" style="fill:url(#linear-gradient-2)"/><path id="path979" d="M0,34.32l134.79,53.1V76.51L0,23.41Z" transform="translate(0)" style="fill:url(#linear-gradient-3)"/><path id="path981" d="M22.47,44.67V132L0,123.1V35.82Z" transform="translate(0)" style="fill:#b8dafe"/><path id="path983" d="M28.08,52.34,56.16,63.4V85.22L28.08,74.16V52.34" transform="translate(0)" style="fill:url(#linear-gradient-4)"/><path id="path1142" d="M61.78,65.61,89.86,76.67V98.49L61.78,87.43V65.61" transform="translate(0)" style="fill:url(#linear-gradient-5)"/><path id="path985" d="M58.78,67.11,86.86,78.17V100L58.78,88.93V67.11" transform="translate(0)" style="fill:#fff"/><path id="path1140" d="M95.48,78.89,123.56,90v21.82L95.48,100.7V78.89" transform="translate(0)" style="fill:url(#linear-gradient-6)"/><path id="path987" d="M92.48,80.39l28.08,11.06v21.82L92.48,102.2V80.39" transform="translate(0)" style="fill:#fff"/><path id="path989" d="M28.08,79.61l95.48,37.61v5.46L28.08,85.07Z" transform="translate(0)" style="fill:url(#linear-gradient-7)"/><path id="path991" d="M28.08,91.16l95.48,37.61v5.45L28.08,96.61Z" transform="translate(0)" style="fill:url(#linear-gradient-8)"/><path id="path993" d="M28.08,101.43,123.56,139v5.46L28.08,106.89Z" transform="translate(0)" style="fill:url(#linear-gradient-9)"/><path id="path995" d="M28.08,112.34,123.56,150v5.46L28.08,117.8Z" transform="translate(0)" style="fill:#fff"/><path id="path997" d="M28.08,123.25l95.48,37.61v5.46L28.08,128.71Z" transform="translate(0)" style="fill:#fff"/><path id="path999" d="M0,41.28l22.47,8.84v5.46L0,46.73Z" transform="translate(0)" style="fill:#5da9fd"/><path id="path1144" d="M25.08,53.84,53.16,64.9V86.72L25.08,75.66V53.84" transform="translate(0)" style="fill:#fff"/></g></svg>