<svg id="svg8" xmlns="http://www.w3.org/2000/svg" xmlns:xlink="http://www.w3.org/1999/xlink" viewBox="0 0 76.23 82.93"><defs><linearGradient id="linear-gradient" x1="-260.26" y1="114.19" x2="-292.23" y2="139.91" gradientTransform="matrix(2.83, 0, 0, -2.83, 820.89, 392.96)" gradientUnits="userSpaceOnUse"><stop offset="0" stop-color="#80bbfb"/><stop offset="1" stop-color="#f0f7ff"/></linearGradient><linearGradient id="linear-gradient-2" x1="-266.06" y1="110.1" x2="-289.38" y2="134.39" gradientTransform="matrix(2.83, 0, 0, -2.83, 820.89, 392.96)" gradientUnits="userSpaceOnUse"><stop offset="0" stop-color="#e6e6e6"/><stop offset="1" stop-color="#e6e6e6" stop-opacity="0"/></linearGradient><linearGradient id="linear-gradient-3" x1="-47.61" y1="-19.68" x2="-60.23" y2="-15.25" gradientTransform="matrix(2.83, 0, 0, -2.83, 182.93, -12.74)" gradientUnits="userSpaceOnUse"><stop offset="0" stop-color="#ccc"/><stop offset="1" stop-color="#dadada"/></linearGradient><linearGradient id="linear-gradient-4" x1="-272.38" y1="123.12" x2="-281.26" y2="126.72" gradientTransform="matrix(2.83, 0, 0, -2.83, 819.39, 394.46)" gradientUnits="userSpaceOnUse"><stop offset="0" stop-color="#1684fc"/><stop offset="1" stop-color="#72b5fd"/></linearGradient><linearGradient id="linear-gradient-5" x1="-44.74" y1="-21.44" x2="-59.35" y2="-15.69" gradientTransform="matrix(2.83, 0, 0, -2.83, 181.43, -11.24)" gradientUnits="userSpaceOnUse"><stop offset="0" stop-color="#87de87"/><stop offset="1" stop-color="#b3eab3" stop-opacity="0.92"/></linearGradient></defs><g id="layer1"><path id="path1025" d="M10.1,0,76.23,26.05V74.21l-66.13-26Z" style="fill:url(#linear-gradient)"/><path id="path1027" d="M0,7.22l66.12,26V81.43L0,55.38Z" style="fill:#e6e6e6"/><path id="path1029" d="M0,12.57l66.12,26V33.26L0,7.22Z" style="fill:#5da9fd"/><path id="path1031" d="M11,16.91V59.72L0,55.38V12.57Z" style="fill:#b8dafe"/><path id="path1033" d="M13.78,34.05,60.61,52.5v2.68L13.78,36.73Z" style="fill:#fff"/><path id="path1035" d="M13.78,39.71,60.61,58.16v2.68L13.78,42.39Z" style="fill:#fff"/><path id="path1037" d="M13.78,44.75,60.61,63.2v2.68L13.78,47.43Z" style="fill:#fff"/><path id="path1039" d="M13.78,50.11,60.61,68.56v2.67L13.78,52.78Z" style="fill:#fff"/><path id="path1041" d="M13.78,55.46,60.61,73.91v2.67L13.78,58.13Z" style="fill:#fff"/><path id="path1043" d="M13.78,23.35,60.61,41.8v2.67L13.78,26Z" style="fill:#fff"/><path id="path1045" d="M13.78,28.7,60.61,47.15v2.67L13.78,31.37Z" style="fill:#fff"/><path id="path1047" d="M.08,20.22l11,4.34v2.68l-11-4.35Z" style="fill:#5da9fd"/><path id="path1051" d="M0,8.72l66.12,26V82.93L0,56.88Z" style="fill:url(#linear-gradient-2)"/><path id="path1053" d="M0,12.57l66.12,26V33.26L0,7.22Z" style="fill:#5da9fd"/><path id="path1055" d="M11,16.91V59.72L0,55.38V12.57Z" style="fill:#b8dafe"/><path id="path1059" d="M13.78,39.71,60.61,58.16v2.68L13.78,42.39Z" style="fill:#fff"/><path id="path1061" d="M13.78,44.75,60.61,63.2v2.68L13.78,47.43Z" style="fill:#fff"/><path id="path1063" d="M13.78,50.11,60.61,68.56v2.67L13.78,52.78Z" style="fill:#fff"/><path id="path1065" d="M13.78,55.46,60.61,73.91v2.67L13.78,58.13Z" style="fill:#fff"/><path id="path857" d="M13.78,23.35,60.61,41.8V55.18L13.78,36.73Z" style="opacity:0.8510000109672546;isolation:isolate;fill:url(#linear-gradient-3)"/><path id="path1067" d="M12.28,24.85,59.11,43.3V56.68L12.28,38.23Z" style="opacity:0.8510000109672546;isolation:isolate;fill:url(#linear-gradient-4)"/><path id="path1071" d="M.08,24.55l11,4.34v2.68l-11-4.35Z" style="fill:#5da9fd"/><path id="path847" d="M12.28,38.23s1.61-6,4.1-6.34c2.05-.29,2.61,3.9,4.68,4.1,1.79.18,2.91-3.07,4.68-2.7,2.57.54,2.27,5.29,4.68,6.37,1.42.64,3.33-1.24,4.68-.44,1.69,1,.46,4.83,2.33,5.46,2.57.85,4.38-4.61,7-4.06,1.29.27,1.14,2.65,2.34,3.19,1.43.64,3.34-1.24,4.68-.44,1.7,1,.48,4.8,2.34,5.46S59.11,46,59.11,46V56.68Z" style="fill:url(#linear-gradient-5)"/></g></svg>