<svg id="svg8" xmlns="http://www.w3.org/2000/svg" xmlns:xlink="http://www.w3.org/1999/xlink" viewBox="0 0 301.5 137.94"><defs><linearGradient id="linear-gradient" x1="356.94" y1="-524.63" x2="393.75" y2="-399.07" gradientTransform="matrix(0.75, 0, 0, -0.75, -14.46, -308.89)" gradientUnits="userSpaceOnUse"><stop offset="0" stop-color="#58a7fd"/><stop offset="1" stop-color="#9ecdfd"/></linearGradient><linearGradient id="linear-gradient-2" x1="177.79" y1="-523.62" x2="103.73" y2="-432.57" gradientTransform="matrix(0.75, 0, 0, -0.75, -14.46, -308.89)" gradientUnits="userSpaceOnUse"><stop offset="0" stop-color="#57a6fd"/><stop offset="1" stop-color="#8dc3fe"/></linearGradient><linearGradient id="linear-gradient-3" x1="241.63" y1="-499.16" x2="275.53" y2="-405.94" gradientTransform="matrix(0.75, 0, 0, -0.75, -14.46, -308.89)" gradientUnits="userSpaceOnUse"><stop offset="0" stop-color="#79bafc"/><stop offset="1" stop-color="#5fabfd"/></linearGradient></defs><g id="layer1"><g id="g1081"><path id="circle855" d="M234.13,0A75.11,75.11,0,0,0,301.5,133.22v-118A15.19,15.19,0,0,0,286.28,0Z" transform="translate(0 0)" style="fill:url(#linear-gradient)"/><path id="path853" d="M15.22,0A15.19,15.19,0,0,0,0,15.22V81.53A98.55,98.55,0,0,0,168.59,12.16h0A99,99,0,0,0,167.71,0Z" transform="translate(0 0)" style="fill:url(#linear-gradient-2)"/><path id="circle857" d="M115.62,0c-.13,1.64-.22,3.29-.24,4.94a71.86,71.86,0,1,0,143.71,0h0c0-1.65-.06-3.3-.17-4.94Z" transform="translate(0 0)" style="opacity:0.7250000238418579;isolation:isolate;fill:url(#linear-gradient-3)"/></g></g></svg>