<svg id="svg8" xmlns="http://www.w3.org/2000/svg" xmlns:xlink="http://www.w3.org/1999/xlink" viewBox="0 0 117.26 119.3"><defs><linearGradient id="linear-gradient" x1="-187.29" y1="91.48" x2="-228.23" y2="117.18" gradientTransform="matrix(2.83, 0, 0, -2.83, 645.87, 342.79)" gradientUnits="userSpaceOnUse"><stop offset="0" stop-color="#91c2ff"/><stop offset="1" stop-color="#e6f1ff"/></linearGradient><linearGradient id="linear-gradient-2" x1="-196.58" y1="99.59" x2="-253.5" y2="120.36" gradientTransform="matrix(2.83, 0, 0, -2.83, 645.87, 342.79)" gradientUnits="userSpaceOnUse"><stop offset="0" stop-color="#1684fc"/><stop offset="1" stop-color="#1684fc" stop-opacity="0"/></linearGradient></defs><g id="layer1"><path id="path960" d="M20.22,0l97,38.22v70.69l-97-38.22Z" transform="translate(0 0)" style="fill:url(#linear-gradient)"/><path id="path911" d="M0,8.89,97,47.12V117.8L0,79.58Z" transform="translate(0 0)" style="fill:#e6e6e6"/><path id="path913" d="M0,16.75,97,55V47.12L0,8.89Z" transform="translate(0 0)" style="fill:#5da9fd"/><path id="path915" d="M16.17,23.12V86L0,79.58V16.75Z" transform="translate(0 0)" style="fill:#b8dafe"/><path id="path923" d="M20.22,48.27,89,75.35v3.92L20.22,52.2Z" transform="translate(0 0)" style="fill:#fff"/><path id="path925" d="M20.22,56.58,89,83.66v3.93L20.22,60.51Z" transform="translate(0 0)" style="fill:#fff"/><path id="path927" d="M20.22,64,89,91.06V95L20.22,67.91Z" transform="translate(0 0)" style="fill:#fff"/><path id="path929" d="M20.22,71.83,89,98.91v3.93L20.22,75.76Z" transform="translate(0 0)" style="fill:#fff"/><path id="path931" d="M20.22,79.69,89,106.76v3.93L20.22,83.62Z" transform="translate(0 0)" style="fill:#fff"/><path id="path933" d="M20.22,32.56,89,59.64v3.93L20.22,36.49Z" transform="translate(0 0)" style="fill:#fff"/><path id="path954" d="M20.22,40.42,89,67.49v3.93L20.22,44.34Z" transform="translate(0 0)" style="fill:#fff"/><path id="path958" d="M.11,28l16.18,6.37v3.93L.11,31.9Z" transform="translate(0 0)" style="fill:#5da9fd"/><path id="path1003" d="M0,10.39,97,48.62V119.3L0,81.08Z" transform="translate(0 0)" style="fill:#e6e6e6"/><path id="path1005" d="M0,16.75,97,55V47.12L0,8.89Z" transform="translate(0 0)" style="fill:#5da9fd"/><path id="path1007" d="M16.17,23.12V86L0,79.58V16.75Z" transform="translate(0 0)" style="fill:#b8dafe"/><path id="path1009" d="M20.22,48.27,89,75.35v3.92L20.22,52.2Z" transform="translate(0 0)" style="fill:#fff"/><path id="path1011" d="M20.22,56.58,89,83.66v3.93L20.22,60.51Z" transform="translate(0 0)" style="fill:#fff"/><path id="path1013" d="M20.22,64,89,91.06V95L20.22,67.91Z" transform="translate(0 0)" style="fill:#fff"/><path id="path1015" d="M20.22,71.83,89,98.91v3.93L20.22,75.76Z" transform="translate(0 0)" style="fill:#fff"/><path id="path1017" d="M20.22,79.69,89,106.76v3.93L20.22,83.62Z" transform="translate(0 0)" style="fill:#fff"/><path id="path1019" d="M20.22,32.56,89,59.64v3.93L20.22,36.49Z" transform="translate(0 0)" style="fill:url(#linear-gradient-2)"/><path id="path1021" d="M20.22,40.42,89,67.49v3.93L20.22,44.34Z" transform="translate(0 0)" style="fill:#fff"/><path id="path1023" d="M.11,28l16.18,6.37v3.93L.11,31.9Z" transform="translate(0 0)" style="fill:#5da9fd"/></g></svg>