<svg id="svg8" xmlns="http://www.w3.org/2000/svg" xmlns:xlink="http://www.w3.org/1999/xlink" viewBox="0 0 102.07 294.78"><defs><linearGradient id="linear-gradient" x1="-242.02" y1="213.05" x2="-277.56" y2="213.24" gradientTransform="matrix(3.06, 0, 0, -2.83, 859.05, 709.76)" gradientUnits="userSpaceOnUse"><stop offset="0" stop-color="#ccc"/><stop offset="1" stop-color="#fff"/></linearGradient><linearGradient id="linear-gradient-2" x1="-261.69" y1="224.46" x2="-284.9" y2="208.85" gradientTransform="matrix(3.06, 0, 0, -2.83, 863.11, 710.14)" gradientUnits="userSpaceOnUse"><stop offset="0" stop-color="#1684fc"/><stop offset="1" stop-color="#5da9fd" stop-opacity="0"/></linearGradient></defs><g id="layer1"><path id="rect971" d="M21.78,52.9H32.57a1.28,1.28,0,0,1,1.33,1.23V59.5a1.28,1.28,0,0,1-1.33,1.24H21.78a1.29,1.29,0,0,1-1.33-1.24V54.13A1.29,1.29,0,0,1,21.78,52.9Z" transform="translate(0 0)" style="fill:#ffe1cd"/><path id="path815" d="M43,31.15c0,4.84.5,9.37-1.43,13.22-3.61,7.19-8.47,12-15.86,12-11.33,0-20.52-11.29-20.52-25.21S14.38,5.94,25.71,5.94,43,17.22,43,31.15Z" transform="translate(0 0)" style="fill:#ffe1cd"/><path id="path842" d="M46.07,106.32s3.93,11.15,5.49,16.83c2,7.39,5.07,22.4,5.07,22.4l7.95,4.66c2,3.47.56,8.68.56,8.68l-7.5,1s-3.47-5-4.52-7.73A23.82,23.82,0,0,1,52.3,148s-14.46-22.08-17.39-34.46c-.78-3.28.06-10.07.06-10.07l6.79-5.33L51.41,95l-2.29,18.33-1.45-.55Z" transform="translate(0 0)" style="fill:#ffe1cd"/><path id="path817" d="M17.29,60.16s-6.55,7.71-7.21,12.35C6.91,95,3.8,119.83,8.54,141c1.15,5.13,5.63,12.12,5.63,12.12l36.69.38s2.09-13.5,2.26-19c.71-23.68.43-45.32-6.75-68.14C45,61.76,37,57.46,37,57.46Z" transform="translate(0 0)" style="fill:url(#linear-gradient)"/><path id="path819" d="M41.69,63.19s-16,6.72-18.29,13.15c-3.62,10.09,10.42,30.39,10.42,30.39l25-7L46.77,68.21l-5.08-5" transform="translate(0 0)" style="fill:url(#linear-gradient-2)"/><path id="path821" d="M53,105.05s9.65-7.6,14.72-11.1c6.61-4.56,20.45-12.87,20.45-12.87L89.8,72.5l9.82-9.08,1.91.25-3.27,5,3.81,6.06a53.55,53.55,0,0,1-6,6.81,27.38,27.38,0,0,1-3.81,2.27s-16.55,20.78-27.81,28c-3,1.91-10.09,3.79-10.09,3.79l-7.9-3.79-6.82-7.06,19.19-5v1.45Z" transform="translate(0 0)" style="fill:#ffe1cd"/><path id="path841" d="M13.27,282.36l-2.21,5.91.74,2.48L42,288s-.88-3.85-2.37-4.87c-4-2.78-14.63-1.28-14.63-1.28Z" transform="translate(0 0)" style="fill:gray"/><path id="path839" d="M13.27,274.79v7.57L25,281.82l-.59-8.11Z" transform="translate(0 0)" style="fill:#f2f2f2"/><path id="path833" d="M25.26,277.49l-16.73-.13,5.33-118.31Z" transform="translate(0 0)" style="fill:#50a2fd"/><path id="rect825" d="M15.2,153.46H49.53a1.28,1.28,0,0,1,1.33,1.24v3.11a1.29,1.29,0,0,1-1.33,1.24H15.2a1.3,1.3,0,0,1-1.34-1.24V154.7A1.29,1.29,0,0,1,15.2,153.46Z" transform="translate(0 0)" style="fill:gray"/><path id="path835" d="M32.16,275.76v7.57l11.69-.54-.58-8.11Z" transform="translate(0 0)" style="fill:#f2f2f2"/><path id="path831" d="M13.86,159.05,23.76,276l26.65.55.45-117.49Z" transform="translate(0 0)" style="fill:#60abfd"/><path id="path837" d="M32.16,283.33s-3.08,5.38-2.62,8.2c.2,1.29,2.33,3.25,2.33,3.25L62.11,293s.51-5.77-1.31-7.57c-4.08-4-16.95-2.64-16.95-2.64Z" transform="translate(0 0)" style="fill:#999"/><path id="path973" d="M14.07,52.55s7.27-3.28,9.43-6.25c3.95-5.41,1.12-13.58,5-19,1.41-2,3.81-3.28,6.14-4.26s7.19-1.42,7.19-1.42,4.22-4.67,3.86-7.38c-.56-4.28-4.9-7.75-8.9-9.95C30.78,1,23-1,16.22.56,11.08,1.77,6.59,5.68,3.94,9.93.21,15.92-.47,23.51.26,30.39c.8,7.46,8.6,21,8.6,21Z" transform="translate(0 0)" style="fill:#4d4d4d"/></g></svg>